<?xml version="1.0" encoding="UTF-8"?>
<svg version="1.1" xmlns="http://www.w3.org/2000/svg" width="750" height="750">
<path d="M0 0 C1.73825303 2.34534439 1.7094513 3.86957934 1.68359375 6.765625 C1.69132813 7.631875 1.6990625 8.498125 1.70703125 9.390625 C1.23852886 12.18326672 0.55989781 13.0963654 -1.69140625 14.765625 C-2.35140625 14.765625 -3.01140625 14.765625 -3.69140625 14.765625 C-3.69140625 38.855625 -3.69140625 62.945625 -3.69140625 87.765625 C1.58859375 85.785625 6.86859375 83.805625 12.30859375 81.765625 C24.15421433 78.04271568 34.97616441 77.28824064 47.30859375 77.765625 C50.42116916 77.765625 53.30263503 77.35744821 56.37109375 76.88671875 C58.30859375 76.765625 58.30859375 76.765625 61.30859375 77.765625 C61.30859375 79.085625 61.30859375 80.405625 61.30859375 81.765625 C59.58052057 82.10458156 57.85107401 82.43654025 56.12109375 82.765625 C55.15816406 82.95125 54.19523438 83.136875 53.203125 83.328125 C50.48181065 83.73944377 48.0512587 83.99299619 45.30859375 83.765625 C44.64859375 83.105625 43.98859375 82.445625 43.30859375 81.765625 C42.39335937 82.1265625 41.478125 82.4875 40.53515625 82.859375 C39.34664062 83.3234375 38.158125 83.7875 36.93359375 84.265625 C35.75023437 84.7296875 34.566875 85.19375 33.34765625 85.671875 C30.30859375 86.765625 30.30859375 86.765625 28.30859375 86.765625 C28.30859375 87.425625 28.30859375 88.085625 28.30859375 88.765625 C29.30439453 88.5490625 29.30439453 88.5490625 30.3203125 88.328125 C31.20332031 88.1425 32.08632812 87.956875 32.99609375 87.765625 C33.86621094 87.58 34.73632812 87.394375 35.6328125 87.203125 C38.24572339 86.77590453 40.66672413 86.68946299 43.30859375 86.765625 C43.96859375 88.085625 44.62859375 89.405625 45.30859375 90.765625 C43.93359375 92.265625 43.93359375 92.265625 42.30859375 93.765625 C41.64859375 93.765625 40.98859375 93.765625 40.30859375 93.765625 C39.97859375 95.085625 39.64859375 96.405625 39.30859375 97.765625 C42.60859375 97.765625 45.90859375 97.765625 49.30859375 97.765625 C49.63859375 99.085625 49.96859375 100.405625 50.30859375 101.765625 C54.92859375 101.765625 59.54859375 101.765625 64.30859375 101.765625 C64.63859375 104.075625 64.96859375 106.385625 65.30859375 108.765625 C59.36153546 110.37293805 53.4798744 111.80906324 47.37109375 112.640625 C41.38601693 113.49976148 35.55870022 114.7965044 29.68359375 116.203125 C28.39594116 116.5112915 28.39594116 116.5112915 27.08227539 116.82568359 C8.57940101 121.32757377 -10.11147346 126.38473719 -27.69140625 133.765625 C-28.89023438 134.25289062 -30.0890625 134.74015625 -31.32421875 135.2421875 C-39.21382577 138.5167815 -46.76186645 142.28802177 -54.25390625 146.390625 C-55.08672119 146.8458252 -55.91953613 147.30102539 -56.77758789 147.77001953 C-60.5465327 149.870094 -64.13110635 152.02340341 -67.59375 154.6015625 C-70.69140625 156.765625 -70.69140625 156.765625 -73.69140625 156.765625 C-74.02140625 157.755625 -74.35140625 158.745625 -74.69140625 159.765625 C-78.13585069 162.765625 -78.13585069 162.765625 -80.69140625 162.765625 C-80.69140625 163.425625 -80.69140625 164.085625 -80.69140625 164.765625 C-82.3359375 166.3515625 -82.3359375 166.3515625 -84.50390625 168.140625 C-87.47571205 170.59818389 -89.31371603 172.59537137 -91.69140625 175.765625 C-75.85140625 176.260625 -75.85140625 176.260625 -59.69140625 176.765625 C-59.69140625 178.745625 -59.69140625 180.725625 -59.69140625 182.765625 C-61.37882935 182.74822266 -61.37882935 182.74822266 -63.1003418 182.73046875 C-67.28481646 182.69787193 -71.46769517 182.71781246 -75.65209961 182.75341797 C-77.46101133 182.76151588 -79.27004498 182.75547187 -81.07885742 182.73486328 C-83.68439285 182.70765516 -86.28525449 182.731744 -88.890625 182.765625 C-90.09872078 182.73650024 -90.09872078 182.73650024 -91.33122253 182.70678711 C-93.70068426 182.76728948 -95.4775605 182.90980485 -97.69140625 183.765625 C-105.87805075 192.57487349 -107.15191444 205.8449225 -107.02734375 217.29296875 C-106.67026327 220.9841844 -105.79727316 224.23287506 -104.69140625 227.765625 C-104.47484375 228.94125 -104.47484375 228.94125 -104.25390625 230.140625 C-104.06828125 230.676875 -103.88265625 231.213125 -103.69140625 231.765625 C-102.70140625 232.095625 -101.71140625 232.425625 -100.69140625 232.765625 C-99.94890625 233.52875 -99.20640625 234.291875 -98.44140625 235.078125 C-88.83502991 244.4661746 -74.93683984 245.9283308 -62.0637207 245.88842773 C-56.47371524 245.68486785 -51.02005389 244.84282623 -45.50390625 243.953125 C-43.83811523 243.7046582 -43.83811523 243.7046582 -42.13867188 243.45117188 C-36.43058689 242.55664643 -31.0554521 241.44398821 -25.63085938 239.43652344 C-23.56409767 238.72158623 -21.52197192 238.25653377 -19.37890625 237.828125 C-10.41161058 235.93450759 -1.97829621 232.61256658 6.30859375 228.765625 C7.00082031 228.47042969 7.69304687 228.17523438 8.40625 227.87109375 C16.7503278 224.31236728 25.14475455 220.26386948 32.43359375 214.828125 C35.30859375 212.765625 35.30859375 212.765625 38.30859375 212.765625 C38.30859375 212.105625 38.30859375 211.445625 38.30859375 210.765625 C40.20703125 209.0390625 40.20703125 209.0390625 42.68359375 207.140625 C43.49570313 206.50898438 44.3078125 205.87734375 45.14453125 205.2265625 C47.30859375 203.765625 47.30859375 203.765625 49.30859375 203.765625 C49.30859375 203.105625 49.30859375 202.445625 49.30859375 201.765625 C50.27796875 200.981875 51.24734375 200.198125 52.24609375 199.390625 C57.59979624 195.00234427 61.28338359 189.33899291 65.30859375 183.765625 C55.40859375 183.270625 55.40859375 183.270625 45.30859375 182.765625 C45.30859375 180.785625 45.30859375 178.805625 45.30859375 176.765625 C60.65359375 176.270625 60.65359375 176.270625 76.30859375 175.765625 C76.30859375 169.495625 76.30859375 163.225625 76.30859375 156.765625 C82.90859375 156.765625 89.50859375 156.765625 96.30859375 156.765625 C96.30859375 153.795625 96.30859375 150.825625 96.30859375 147.765625 C93.33859375 147.765625 90.36859375 147.765625 87.30859375 147.765625 C87.30859375 144.465625 87.30859375 141.165625 87.30859375 137.765625 C90.27859375 137.765625 93.24859375 137.765625 96.30859375 137.765625 C96.30859375 134.795625 96.30859375 131.825625 96.30859375 128.765625 C99.60859375 128.765625 102.90859375 128.765625 106.30859375 128.765625 C106.30859375 131.735625 106.30859375 134.705625 106.30859375 137.765625 C109.27859375 137.765625 112.24859375 137.765625 115.30859375 137.765625 C115.30859375 134.795625 115.30859375 131.825625 115.30859375 128.765625 C118.27859375 128.765625 121.24859375 128.765625 124.30859375 128.765625 C124.27765625 126.5690625 124.27765625 126.5690625 124.24609375 124.328125 C124.22467368 122.80729982 124.23679411 121.28490538 124.30859375 119.765625 C125.30859375 118.765625 125.30859375 118.765625 127.59375 118.66796875 C128.51027344 118.67957031 129.42679687 118.69117188 130.37109375 118.703125 C131.74974609 118.71666016 131.74974609 118.71666016 133.15625 118.73046875 C134.22166016 118.74787109 134.22166016 118.74787109 135.30859375 118.765625 C135.30859375 115.795625 135.30859375 112.825625 135.30859375 109.765625 C138.27859375 109.765625 141.24859375 109.765625 144.30859375 109.765625 C144.30859375 112.735625 144.30859375 115.705625 144.30859375 118.765625 C147.60859375 118.765625 150.90859375 118.765625 154.30859375 118.765625 C154.30859375 115.795625 154.30859375 112.825625 154.30859375 109.765625 C157.60859375 109.765625 160.90859375 109.765625 164.30859375 109.765625 C164.30859375 113.065625 164.30859375 116.365625 164.30859375 119.765625 C161.00859375 119.765625 157.70859375 119.765625 154.30859375 119.765625 C154.30859375 122.735625 154.30859375 125.705625 154.30859375 128.765625 C157.60859375 128.765625 160.90859375 128.765625 164.30859375 128.765625 C164.30859375 132.065625 164.30859375 135.365625 164.30859375 138.765625 C161.00859375 138.765625 157.70859375 138.765625 154.30859375 138.765625 C154.30859375 144.705625 154.30859375 150.645625 154.30859375 156.765625 C151.00859375 156.765625 147.70859375 156.765625 144.30859375 156.765625 C144.30859375 160.065625 144.30859375 163.365625 144.30859375 166.765625 C141.33859375 166.765625 138.36859375 166.765625 135.30859375 166.765625 C135.30859375 169.735625 135.30859375 172.705625 135.30859375 175.765625 C235.29859375 176.095625 335.28859375 176.425625 438.30859375 176.765625 C438.63859375 175.445625 438.96859375 174.125625 439.30859375 172.765625 C442.35485383 170.88411142 444.27896917 170.76458554 447.87109375 170.890625 C451.73502694 171.87417163 453.15950728 172.41305011 455.30859375 175.765625 C456.10293233 179.753696 455.90709922 182.72474593 453.87109375 186.265625 C450.17695817 188.42804583 446.48029413 188.76448284 442.30859375 187.765625 C441.71380337 187.10514152 441.11901298 186.44465805 440.50619864 185.76415992 C437.78028979 183.28517744 436.56264975 183.26363149 432.92816544 183.25781631 C431.82989843 183.24636873 430.73163142 183.23492114 429.60008359 183.22312665 C428.39386814 183.23088707 427.18765269 183.23864748 425.94488525 183.24664307 C424.66331567 183.23914181 423.38174608 183.23164056 422.06134105 183.223912 C418.50156384 183.20361178 414.94218422 183.20821584 411.38237548 183.21681952 C407.5445998 183.22175539 403.70692514 183.20369069 399.8691864 183.18840027 C393.21921748 183.16506229 386.56935769 183.15634086 379.91934967 183.15750885 C370.30454703 183.1591765 360.68989008 183.13885964 351.07512626 183.11315355 C335.4763608 183.07204668 319.87762151 183.04875308 304.27880859 183.03662109 C289.12481165 183.02479701 273.97086398 183.0046088 258.81689453 182.97314453 C257.41607645 182.97024038 257.41607645 182.97024038 255.98695901 182.96727756 C251.30202695 182.95751314 246.61709526 182.94758401 241.93216372 182.93757296 C203.05766326 182.85471672 164.18316445 182.80104864 125.30859375 182.765625 C125.30859375 186.725625 125.30859375 190.685625 125.30859375 194.765625 C122.00859375 194.765625 118.70859375 194.765625 115.30859375 194.765625 C115.30859375 191.795625 115.30859375 188.825625 115.30859375 185.765625 C112.33859375 185.765625 109.36859375 185.765625 106.30859375 185.765625 C106.30859375 192.035625 106.30859375 198.305625 106.30859375 204.765625 C105.31859375 204.765625 104.32859375 204.765625 103.30859375 204.765625 C103.03917969 205.35859375 102.76976562 205.9515625 102.4921875 206.5625 C93.95087366 222.46118319 69.75130028 232.29709185 54.13525391 239.86767578 C51.50217792 241.16204273 48.91057991 242.53505711 46.30859375 243.890625 C39.87374151 247.10370911 33.20416078 249.58109777 26.44238281 251.99804688 C24.25379483 252.78533756 22.07408498 253.59431585 19.89453125 254.40625 C18.42865465 254.94344357 16.96251562 255.47992168 15.49609375 256.015625 C14.51153198 256.38494141 14.51153198 256.38494141 13.50708008 256.76171875 C9.55710113 258.1807907 5.68155148 259.120495 1.54418945 259.84667969 C0.07004326 260.10756378 0.07004326 260.10756378 -1.43388367 260.37371826 C-2.17886612 260.50304749 -2.92384857 260.63237671 -3.69140625 260.765625 C-3.65340319 271.66625827 -3.59412041 282.56654665 -3.50750351 293.46690845 C-3.4679578 298.52816395 -3.43580424 303.58924361 -3.42041016 308.65063477 C-3.40529015 313.53322402 -3.37092802 318.41533011 -3.32309723 323.2977047 C-3.30823521 325.16241957 -3.30036249 327.0272034 -3.2995224 328.89197731 C-3.29716541 331.49988224 -3.27018993 334.10643797 -3.23730469 336.71411133 C-3.24233505 337.48878754 -3.24736542 338.26346375 -3.25254822 339.06161499 C-3.25064068 341.45835516 -3.25064068 341.45835516 -2.69140625 344.765625 C-0.8018261 346.64335073 -0.8018261 346.64335073 1.30859375 347.765625 C2.13206845 351.485459 1.9533099 355.02066509 1.30859375 358.765625 C-1.23097564 361.97743334 -2.69527608 362.5996033 -6.69140625 363.265625 C-10.52601178 362.62652408 -12.09461152 361.65919627 -14.69140625 358.765625 C-15.84838329 354.78851641 -16.10224491 352.71055392 -14.44140625 348.890625 C-12.69140625 346.765625 -12.69140625 346.765625 -9.69140625 345.765625 C-10.02140625 318.375625 -10.35140625 290.985625 -10.69140625 262.765625 C-15.64140625 263.755625 -20.59140625 264.745625 -25.69140625 265.765625 C-29.15987356 266.02764405 -32.43984586 266.21183989 -35.89453125 266.19921875 C-36.78267517 266.2044606 -37.67081909 266.20970245 -38.58587646 266.21510315 C-40.4408668 266.22144331 -42.29589778 266.22029244 -44.15087891 266.21166992 C-46.92426377 266.20317749 -49.69556771 266.23200782 -52.46875 266.26367188 C-73.73459893 266.34656427 -93.98303351 262.23056113 -111.69140625 249.765625 C-111.69140625 249.105625 -111.69140625 248.445625 -111.69140625 247.765625 C-112.52671875 247.4253125 -112.52671875 247.4253125 -113.37890625 247.078125 C-120.57049335 242.9964134 -125.797568 234.93217241 -128.56640625 227.265625 C-132.52359048 212.00558522 -128.76463649 197.82393213 -122.69140625 183.765625 C-129.00840508 183.66409718 -135.32519304 183.59410621 -141.64282227 183.54589844 C-143.79133975 183.52579914 -145.93980265 183.49851507 -148.08813477 183.46386719 C-151.1786853 183.41527587 -154.2685118 183.39263921 -157.359375 183.375 C-158.31788864 183.35435486 -159.27640228 183.33370972 -160.26396179 183.31243896 C-165.8457458 183.31056635 -168.51189902 183.75824109 -172.69140625 187.765625 C-176.48116275 188.09232815 -179.08567921 187.96753401 -182.69140625 186.765625 C-184.77274092 183.643623 -184.96518845 182.83295511 -184.94140625 179.265625 C-184.94914063 178.10546875 -184.94914063 178.10546875 -184.95703125 176.921875 C-184.69140625 174.765625 -184.69140625 174.765625 -182.69140625 171.765625 C-178.45316387 170.45002127 -174.75489546 170.30034847 -170.69140625 172.078125 C-168.69140625 173.765625 -168.69140625 173.765625 -167.69140625 175.765625 C-160.71808658 176.04548778 -153.74622163 176.23753798 -146.76855469 176.36987305 C-144.39756164 176.42505382 -142.02694063 176.50002217 -139.65722656 176.59545898 C-126.42588029 177.71048481 -126.42588029 177.71048481 -114.46191406 173.45703125 C-112.41640254 170.63195996 -111.02768781 167.97707547 -109.69140625 164.765625 C-103.19165404 156.32467163 -96.03288342 148.47469376 -88.69140625 140.765625 C-87.7890625 139.81429687 -86.88671875 138.86296875 -85.95703125 137.8828125 C-83.69140625 135.765625 -83.69140625 135.765625 -81.69140625 135.765625 C-81.69140625 135.105625 -81.69140625 134.445625 -81.69140625 133.765625 C-80.1953125 132.546875 -80.1953125 132.546875 -78.25390625 131.265625 C-75.46608778 129.4790887 -75.46608778 129.4790887 -73.69140625 126.765625 C-72.70140625 126.765625 -71.71140625 126.765625 -70.69140625 126.765625 C-70.40523437 125.92064453 -70.40523437 125.92064453 -70.11328125 125.05859375 C-68.07882085 121.77774689 -65.13645222 120.10226604 -61.94140625 118.078125 C-61.26674316 117.64242187 -60.59208008 117.20671875 -59.89697266 116.7578125 C-58.50083523 115.85686808 -57.10254079 114.9592578 -55.70214844 114.06494141 C-53.88818053 112.89277808 -52.10276622 111.68979301 -50.32421875 110.46484375 C-43.44082802 105.81814233 -36.37380975 101.97474479 -28.87890625 98.390625 C-28.00733887 97.97361328 -27.13577148 97.55660156 -26.23779297 97.12695312 C-20.74262132 94.56288826 -15.54050129 92.71532335 -9.69140625 90.765625 C-9.69140625 65.685625 -9.69140625 40.605625 -9.69140625 14.765625 C-11.01140625 14.435625 -12.33140625 14.105625 -13.69140625 13.765625 C-15.54616298 10.42706289 -16.16444474 7.5499329 -15.69140625 3.765625 C-13.63258272 -0.76378676 -13.63258272 -0.76378676 -10.94140625 -2.109375 C-7.08234993 -2.32376702 -3.20942749 -2.34221498 0 0 Z M13.30859375 94.765625 C12.64859375 95.425625 11.98859375 96.085625 11.30859375 96.765625 C16.83928488 97.20495757 16.83928488 97.20495757 21.80859375 95.265625 C22.30359375 94.770625 22.79859375 94.275625 23.30859375 93.765625 C19.33197021 92.44008382 17.20971464 93.41796506 13.30859375 94.765625 Z M24.30859375 100.765625 C24.30859375 101.425625 24.30859375 102.085625 24.30859375 102.765625 C27.77359375 102.270625 27.77359375 102.270625 31.30859375 101.765625 C31.30859375 101.435625 31.30859375 101.105625 31.30859375 100.765625 C28.99859375 100.765625 26.68859375 100.765625 24.30859375 100.765625 Z M22.30859375 109.765625 C22.30859375 110.095625 22.30859375 110.425625 22.30859375 110.765625 C23.95859375 110.765625 25.60859375 110.765625 27.30859375 110.765625 C27.30859375 110.435625 27.30859375 110.105625 27.30859375 109.765625 C25.65859375 109.765625 24.00859375 109.765625 22.30859375 109.765625 Z M135.30859375 119.765625 C135.30859375 122.735625 135.30859375 125.705625 135.30859375 128.765625 C138.27859375 128.765625 141.24859375 128.765625 144.30859375 128.765625 C144.30859375 125.795625 144.30859375 122.825625 144.30859375 119.765625 C141.33859375 119.765625 138.36859375 119.765625 135.30859375 119.765625 Z M125.30859375 128.765625 C125.30859375 131.735625 125.30859375 134.705625 125.30859375 137.765625 C128.60859375 137.765625 131.90859375 137.765625 135.30859375 137.765625 C135.30859375 134.795625 135.30859375 131.825625 135.30859375 128.765625 C132.00859375 128.765625 128.70859375 128.765625 125.30859375 128.765625 Z M144.30859375 128.765625 C144.30859375 131.735625 144.30859375 134.705625 144.30859375 137.765625 C147.60859375 137.765625 150.90859375 137.765625 154.30859375 137.765625 C154.30859375 134.795625 154.30859375 131.825625 154.30859375 128.765625 C151.00859375 128.765625 147.70859375 128.765625 144.30859375 128.765625 Z M135.30859375 138.765625 C135.30859375 144.705625 135.30859375 150.645625 135.30859375 156.765625 C138.27859375 156.765625 141.24859375 156.765625 144.30859375 156.765625 C144.30859375 150.825625 144.30859375 144.885625 144.30859375 138.765625 C141.33859375 138.765625 138.36859375 138.765625 135.30859375 138.765625 Z M115.30859375 147.765625 C115.30859375 150.735625 115.30859375 153.705625 115.30859375 156.765625 C118.27859375 156.765625 121.24859375 156.765625 124.30859375 156.765625 C124.30859375 153.795625 124.30859375 150.825625 124.30859375 147.765625 C121.33859375 147.765625 118.36859375 147.765625 115.30859375 147.765625 Z M115.30859375 166.765625 C115.30859375 169.735625 115.30859375 172.705625 115.30859375 175.765625 C118.27859375 175.765625 121.24859375 175.765625 124.30859375 175.765625 C124.30859375 172.795625 124.30859375 169.825625 124.30859375 166.765625 C121.33859375 166.765625 118.36859375 166.765625 115.30859375 166.765625 Z M87.30859375 175.765625 C87.30859375 179.065625 87.30859375 182.365625 87.30859375 185.765625 C90.27859375 185.765625 93.24859375 185.765625 96.30859375 185.765625 C96.30859375 182.465625 96.30859375 179.165625 96.30859375 175.765625 C93.33859375 175.765625 90.36859375 175.765625 87.30859375 175.765625 Z " fill="#908D8E" transform="translate(193.69140625,158.234375)"/>
<path d="M0 0 C10.97489666 8.68845986 15.50103703 20.57040739 17.28125 34.14453125 C17.90126357 46.41563306 12.89057474 57.61756394 5.125 66.75 C-2.23864449 74.64943205 -10.80812642 79.95322936 -21.83984375 80.56640625 C-23.87221045 80.59388846 -25.90516096 80.59195652 -27.9375 80.5625 C-28.99855957 80.55226807 -30.05961914 80.54203613 -31.15283203 80.53149414 C-38.75997815 80.32426134 -44.6286762 79.37682244 -51 75 C-51.87527344 74.48050781 -52.75054687 73.96101563 -53.65234375 73.42578125 C-62.70959038 67.72011487 -67.23192419 59.81412473 -71 50 C-71.35707031 49.07574219 -71.71414062 48.15148437 -72.08203125 47.19921875 C-75.59706498 34.94895225 -72.53460536 23.06921072 -67 12 C-66.34 12 -65.68 12 -65 12 C-64.938125 11.443125 -64.87625 10.88625 -64.8125 10.3125 C-63.63863937 6.97151204 -61.60756137 5.3808169 -59 3 C-58.48179687 2.50113281 -57.96359375 2.00226563 -57.4296875 1.48828125 C-41.62181679 -13.10642729 -17.03414403 -11.71097402 0 0 Z " fill="#F58A20" transform="translate(215,303)"/>
<path d="M0 0 C8.064375 -0.04125 16.12875 -0.0825 24.4375 -0.125 C26.96591553 -0.14320801 29.49433105 -0.16141602 32.09936523 -0.18017578 C34.12743925 -0.18602288 36.15551564 -0.19111792 38.18359375 -0.1953125 C39.21713989 -0.20554443 40.25068604 -0.21577637 41.31555176 -0.22631836 C57.50064257 -0.23017609 57.50064257 -0.23017609 63.4375 5.25 C64.07558594 5.81203125 64.71367187 6.3740625 65.37109375 6.953125 C69.53647013 12.18731498 69.47519925 18.3796229 69.39453125 24.7890625 C68.8323233 29.36465593 67.1210572 32.63304132 64 36 C63.01 36.495 63.01 36.495 62 37 C63.11375 38.051875 63.11375 38.051875 64.25 39.125 C68.63150363 43.70566288 71.47410823 47.20099065 71.55615234 53.76049805 C71.53762207 54.43765869 71.5190918 55.11481934 71.5 55.8125 C71.48791504 56.51737549 71.47583008 57.22225098 71.46337891 57.94848633 C71.21678997 64.44274232 70.04204126 69.70792795 65.57421875 74.54296875 C53.15484775 85.48613545 36.16265964 83.25750184 20.6875 83.125 C13.860625 83.08375 7.03375 83.0425 0 83 C0 55.61 0 28.22 0 0 Z M23 19 C23 22.63 23 26.26 23 30 C26.29188269 30.05376941 29.58289426 30.09356106 32.875 30.125 C34.28072266 30.15013672 34.28072266 30.15013672 35.71484375 30.17578125 C36.61074219 30.18222656 37.50664062 30.18867188 38.4296875 30.1953125 C39.67081299 30.21102295 39.67081299 30.21102295 40.93701172 30.22705078 C43.22398157 30.19302257 43.22398157 30.19302257 45 28 C45.50010524 25.04230823 45.50010524 25.04230823 45 22 C43.19580153 19.90322881 41.73858993 19.08630895 38.98388672 18.7644043 C36.56562358 18.7043946 34.16782539 18.73883188 31.75 18.8125 C30.48929687 18.83280273 30.48929687 18.83280273 29.203125 18.85351562 C27.13514062 18.88876536 25.06748729 18.9425698 23 19 Z M23 49 C23 53.62 23 58.24 23 63 C26.2508878 63.10796306 29.49819179 63.18729295 32.75 63.25 C34.13058594 63.30027344 34.13058594 63.30027344 35.5390625 63.3515625 C40.90247643 63.49689722 40.90247643 63.49689722 45.60546875 61.20703125 C47.66539487 57.94692409 47.61557259 55.7618325 47 52 C42.58349846 48.0861897 37.74325998 48.65092309 32.1875 48.8125 C31.30384766 48.82603516 30.42019531 48.83957031 29.50976562 48.85351562 C27.33957977 48.88870783 25.16970967 48.94251015 23 49 Z " fill="#231F21" transform="translate(241,422)"/>
<path d="M0 0 C22 0 22 0 26.8125 4.25 C27.9152247 6.14380981 28.97639588 8.06228176 30 10 C31.45104726 11.95864804 32.93161769 13.89569048 34.4375 15.8125 C46.47988127 31.95976253 46.47988127 31.95976253 49 37 C49.33 24.79 49.66 12.58 50 0 C57.59 0 65.18 0 73 0 C73 27.39 73 54.78 73 83 C53 83 53 83 48.5625 78.625 C47.70591633 77.05594982 46.85293057 75.48427314 46.04785156 73.88818359 C43.88738768 69.9951203 41.08562643 66.50756674 38.4375 62.9375 C37.31372329 61.38605443 36.19256117 59.83271113 35.07421875 58.27734375 C34.28217041 57.17688721 34.28217041 57.17688721 33.47412109 56.05419922 C25.40469689 44.80939377 25.40469689 44.80939377 24 42 C24 55.53 24 69.06 24 83 C16.08 83 8.16 83 0 83 C0 55.61 0 28.22 0 0 Z " fill="#231F21" transform="translate(354,422)"/>
<path d="M0 0 C8.25 0 16.5 0 25 0 C25.06058594 3.60035156 25.12117188 7.20070313 25.18359375 10.91015625 C25.24545405 14.40846712 25.30881235 17.90674789 25.37231445 21.4050293 C25.41554763 23.83078313 25.45723062 26.25656513 25.49731445 28.68237305 C25.55529911 32.17505364 25.61891174 35.66759404 25.68359375 39.16015625 C25.70030624 40.23959 25.71701874 41.31902374 25.73423767 42.4311676 C25.83742915 47.71112752 26.094306 52.79467685 27 58 C27.66 58 28.32 58 29 58 C29.33 58.66 29.66 59.32 30 60 C33.14930893 61.04976964 35.38814456 61.10131595 38.6875 61.0625 C40.17830078 61.04896484 40.17830078 61.04896484 41.69921875 61.03515625 C42.45847656 61.02355469 43.21773438 61.01195312 44 61 C46.40810555 56.50486963 47.12053247 52.76805199 47.20532227 47.68066406 C47.22526749 46.61986633 47.24521271 45.5590686 47.26576233 44.46612549 C47.28247482 43.32746033 47.29918732 42.18879517 47.31640625 41.015625 C47.33718735 39.84489441 47.35796844 38.67416382 47.37937927 37.46795654 C47.44475628 33.72869731 47.50370491 29.98936795 47.5625 26.25 C47.60569647 23.7148365 47.64931112 21.17968009 47.69335938 18.64453125 C47.80121234 12.42975834 47.90037455 6.21493207 48 0 C56.25 0 64.5 0 73 0 C73.06312959 7.2528883 73.12320806 14.50476583 73.15525055 21.75769043 C73.17101035 25.13610746 73.19202576 28.51429406 73.22631836 31.89257812 C73.26292452 35.78000902 73.27977786 39.667115 73.29296875 43.5546875 C73.30845261 44.74988007 73.32393646 45.94507263 73.33988953 47.17648315 C73.34204954 58.04769873 71.62864187 66.91954791 64 75 C56.18522289 82.70988078 46.61390702 84.2528616 35.9375 84.375 C25.87739024 84.27148379 17.78037795 82.51011216 10 76 C9.278125 75.401875 8.55625 74.80375 7.8125 74.1875 C-0.04670083 64.70225762 -0.3030397 52.99923637 -0.1953125 41.2109375 C-0.1924826 40.02650055 -0.18965271 38.8420636 -0.18673706 37.62173462 C-0.17562395 33.87271631 -0.1505358 30.12394499 -0.125 26.375 C-0.11495874 23.81901389 -0.1058349 21.263024 -0.09765625 18.70703125 C-0.07742313 12.47118456 -0.03825685 6.23586578 0 0 Z " fill="#231F21" transform="translate(436,422)"/>
<path d="M0 0 C1.19921875 2.125 1.19921875 2.125 2 4 C0.9171875 5.4540625 0.9171875 5.4540625 -0.1875 6.9375 C-2.76715941 10.50092783 -4.75859362 14.23380704 -6.69140625 18.1796875 C-8 20 -8 20 -9.875 20.90625 C-12.71671327 21.0316197 -14.04388657 20.12671241 -16.4375 18.625 C-21.74767431 15.3188393 -26.10730391 14.86931103 -32.3125 14.9375 C-33.38113281 14.94652344 -34.44976563 14.95554687 -35.55078125 14.96484375 C-36.35902344 14.97644531 -37.16726563 14.98804688 -38 15 C-38.33 16.32 -38.66 17.64 -39 19 C-36.23190084 20.84539944 -34.81803684 21.42247197 -31.68359375 22.11328125 C-30.84135254 22.30656006 -29.99911133 22.49983887 -29.13134766 22.69897461 C-28.24237793 22.90143799 -27.3534082 23.10390137 -26.4375 23.3125 C-16.48446009 25.70367661 -6.28651688 28.24452105 0 37 C3.93553798 43.79366633 4.02388626 51.41689005 2.34375 58.9375 C0.34265503 65.28580127 -2.13456719 69.66980921 -8 73 C-23.7666711 79.92304255 -39.87327674 79.79963365 -56 74 C-62.95444179 71.15896238 -62.95444179 71.15896238 -66 69 C-67 66 -67 66 -65.70703125 63.29296875 C-65.08183594 62.26816406 -64.45664062 61.24335938 -63.8125 60.1875 C-63.16796875 59.12402344 -62.5234375 58.06054688 -61.859375 56.96484375 C-59.95881234 53.93432472 -58.04024333 50.9379504 -56 48 C-55.47792969 48.27714844 -54.95585938 48.55429687 -54.41796875 48.83984375 C-45.58308308 53.07887613 -35.27253435 57.65066693 -25.4375 55.0625 C-24.633125 54.711875 -23.82875 54.36125 -23 54 C-23.11927564 52.04714918 -23.11927564 52.04714918 -24 50 C-28.91926495 47.26806702 -34.61736415 45.98566796 -40.125 45 C-48.08071411 43.53745985 -55.7407095 40.362924 -61 34 C-64.44783518 28.01219157 -66.13857038 21.86524122 -65 15 C-63.97401174 11.19133138 -62.86183646 7.48705156 -61 4 C-60.01 3.67 -59.02 3.34 -58 3 C-57.731875 2.401875 -57.46375 1.80375 -57.1875 1.1875 C-54.98716545 -2.86574786 -51.64149883 -4.40562061 -47.46484375 -5.91796875 C-31.79809328 -10.40924446 -13.9761123 -8.76932537 0 0 Z " fill="#231F21" transform="translate(582,428)"/>
<path d="M0 0 C2.4375 1.5625 2.4375 1.5625 4 4 C4.79433858 7.988071 4.59850547 10.95912093 2.5625 14.5 C-1.13163558 16.66242083 -4.82829962 16.99885784 -9 16 C-9.59479038 15.33951652 -10.18958077 14.67903305 -10.80239511 13.99853492 C-13.52830396 11.51955244 -14.745944 11.49800649 -18.38042831 11.49219131 C-19.47869532 11.48074373 -20.57696233 11.46929614 -21.70851016 11.45750165 C-23.51783334 11.46914228 -23.51783334 11.46914228 -25.3637085 11.48101807 C-26.64527808 11.47351681 -27.92684767 11.46601556 -29.2472527 11.458287 C-32.80702991 11.43798678 -36.36640953 11.44259084 -39.92621827 11.45119452 C-43.76399395 11.45613039 -47.60166861 11.43806569 -51.43940735 11.42277527 C-58.08937627 11.39943729 -64.73923606 11.39071586 -71.38924408 11.39188385 C-81.00404672 11.3935515 -90.61870367 11.37323464 -100.23346749 11.34752855 C-115.83223295 11.30642168 -131.43097224 11.28312808 -147.02978516 11.27099609 C-162.1837821 11.25917201 -177.33772977 11.2389838 -192.49169922 11.20751953 C-193.8925173 11.20461538 -193.8925173 11.20461538 -195.32163474 11.20165256 C-200.0065668 11.19188814 -204.69149849 11.18195901 -209.37643003 11.17194796 C-248.25092993 11.08909172 -287.12542939 11.03512753 -326 11 C-326 9.02 -326 7.04 -326 5 C-222.71 5 -119.42 5 -13 5 C-12.67 3.68 -12.34 2.36 -12 1 C-7.91345365 -1.52404333 -4.55137332 -1.15853139 0 0 Z " fill="#212020" transform="translate(645,330)"/>
<path d="M0 0 C8.25 0 16.5 0 25 0 C25 27.39 25 54.78 25 83 C16.75 83 8.5 83 0 83 C0 55.61 0 28.22 0 0 Z " fill="#231F21" transform="translate(319,422)"/>
<path d="M0 0 C7.9509375 -0.061875 7.9509375 -0.061875 16.0625 -0.125 C18.55115601 -0.15231201 18.55115601 -0.15231201 21.09008789 -0.18017578 C22.42594073 -0.18602473 23.76179718 -0.19111933 25.09765625 -0.1953125 C26.11273254 -0.2106604 26.11273254 -0.2106604 27.14831543 -0.22631836 C33.09551676 -0.22846653 38.12312907 0.42172218 42.75 4.3125 C47.91363498 10.48017511 48.52621335 14.69700175 48.359375 22.671875 C47.88467193 27.06803823 47.00431681 28.82400794 44 32 C43.2265625 32.928125 43.2265625 32.928125 42.4375 33.875 C41 35 41 35 38 35 C39.28871694 37.77223992 40.58083384 40.5428053 41.875 43.3125 C42.23980469 44.09818359 42.60460937 44.88386719 42.98046875 45.69335938 C43.33496094 46.45068359 43.68945312 47.20800781 44.0546875 47.98828125 C44.54171143 49.03302612 44.54171143 49.03302612 45.03857422 50.09887695 C46.07423509 52.240819 46.07423509 52.240819 48 55 C48 55.99 48 56.98 48 58 C43.05 58 38.1 58 33 58 C31.70768774 55.58367661 30.41612809 53.16695604 29.125 50.75 C28.76019531 50.06808594 28.39539063 49.38617187 28.01953125 48.68359375 C27.66503906 48.01972656 27.31054688 47.35585938 26.9453125 46.671875 C26.62062988 46.0644043 26.29594727 45.45693359 25.96142578 44.83105469 C24.94799126 42.90094831 23.97492155 40.9498431 23 39 C20.03 38.67 17.06 38.34 14 38 C14 44.6 14 51.2 14 58 C9.38 58 4.76 58 0 58 C0 38.86 0 19.72 0 0 Z M14 13 C14 17.29 14 21.58 14 26 C16.20770805 26.08165496 18.41630425 26.13948488 20.625 26.1875 C22.46964844 26.23970703 22.46964844 26.23970703 24.3515625 26.29296875 C28.30548157 25.9754699 30.6580454 25.09936878 34 23 C35.38508168 19.90393507 35.1900136 18.54050087 34.0703125 15.35546875 C32.29427644 12.85902063 32.29427644 12.85902063 30.06518555 12.59765625 C27.63021072 12.50650331 25.24602596 12.56516497 22.8125 12.6875 C21.5450293 12.72133789 21.5450293 12.72133789 20.25195312 12.75585938 C18.16721202 12.81475037 16.08338196 12.90443202 14 13 Z " fill="#0295D7" transform="translate(500,535)"/>
<path d="M0 0 C4.29 0 8.58 0 13 0 C13.66 1.65 14.32 3.3 15 5 C15.66 5 16.32 5 17 5 C18.55078125 7.16015625 18.55078125 7.16015625 20.3125 10.0625 C22.37613049 13.40463753 24.43481767 16.70130021 26.75 19.875 C28.65785239 22.52479499 30.35685138 25.1831738 32 28 C32.66 28.99 33.32 29.98 34 31 C34.33 20.77 34.66 10.54 35 0 C39.29 0 43.58 0 48 0 C48 19.14 48 38.28 48 58 C43.71 58 39.42 58 35 58 C31.9719885 54.19056617 30.12285891 51.24032985 28 47 C26.86675472 45.28987647 25.70066745 43.6009798 24.5 41.9375 C20.98031439 36.97222922 17.49021925 31.9860275 14 27 C13.67 37.23 13.34 47.46 13 58 C8.71 58 4.42 58 0 58 C0 38.86 0 19.72 0 0 Z " fill="#0195D8" transform="translate(301,535)"/>
<path d="M0 0 C0 1.32 0 2.64 0 4 C-1.72807318 4.33895656 -3.45751974 4.67091525 -5.1875 5 C-6.63189453 5.2784375 -6.63189453 5.2784375 -8.10546875 5.5625 C-10.8267831 5.97381877 -13.25733505 6.22737119 -16 6 C-16.66 5.34 -17.32 4.68 -18 4 C-18.91523438 4.3609375 -19.83046875 4.721875 -20.7734375 5.09375 C-22.55621094 5.78984375 -22.55621094 5.78984375 -24.375 6.5 C-25.55835938 6.9640625 -26.74171875 7.428125 -27.9609375 7.90625 C-31 9 -31 9 -33 9 C-33 9.66 -33 10.32 -33 11 C-32.33613281 10.855625 -31.67226562 10.71125 -30.98828125 10.5625 C-30.10527344 10.376875 -29.22226563 10.19125 -28.3125 10 C-27.44238281 9.814375 -26.57226562 9.62875 -25.67578125 9.4375 C-23.06287036 9.01027953 -20.64186962 8.92383799 -18 9 C-17.34 10.32 -16.68 11.64 -16 13 C-17.375 14.5 -17.375 14.5 -19 16 C-19.66 16 -20.32 16 -21 16 C-21.33 17.32 -21.66 18.64 -22 20 C-18.7 20 -15.4 20 -12 20 C-11.505 21.98 -11.505 21.98 -11 24 C-6.38 24 -1.76 24 3 24 C3.495 27.465 3.495 27.465 4 31 C-1.94705829 32.60731305 -7.82871935 34.04343824 -13.9375 34.875 C-27.13532306 36.76950054 -40.18899392 40.35442432 -53 44 C-54.99893371 44.56627756 -56.99894522 45.12876392 -59 45.6875 C-59.886875 45.93886719 -60.77375 46.19023437 -61.6875 46.44921875 C-64 47 -64 47 -67 47 C-67 46.34 -67 45.68 -67 45 C-66.34 45 -65.68 45 -65 45 C-65 33.45 -65 21.9 -65 10 C-46.60461088 3.10172908 -33.18938897 -0.74281506 -14 0 C0 0 0 0 0 0 Z M-48 17 C-48.66 17.66 -49.32 18.32 -50 19 C-44.46930887 19.43933257 -44.46930887 19.43933257 -39.5 17.5 C-39.005 17.005 -38.51 16.51 -38 16 C-41.97662354 14.67445882 -44.09887911 15.65234006 -48 17 Z M-37 23 C-37 23.66 -37 24.32 -37 25 C-33.535 24.505 -33.535 24.505 -30 24 C-30 23.67 -30 23.34 -30 23 C-32.31 23 -34.62 23 -37 23 Z M-39 32 C-39 32.33 -39 32.66 -39 33 C-37.35 33 -35.7 33 -34 33 C-34 32.67 -34 32.34 -34 32 C-35.65 32 -37.3 32 -39 32 Z " fill="#908E8E" transform="translate(255,236)"/>
<path d="M0 0 C1.42353621 1.16802971 2.77741342 2.42013821 4.11328125 3.6875 C3.78328125 5.3375 3.45328125 6.9875 3.11328125 8.6875 C2.12328125 9.0175 1.13328125 9.3475 0.11328125 9.6875 C-0.21671875 10.6775 -0.54671875 11.6675 -0.88671875 12.6875 C-3.63671875 13.375 -3.63671875 13.375 -6.88671875 13.6875 C-9.07421875 12.3125 -9.07421875 12.3125 -10.88671875 10.6875 C-14.41666488 9.51085129 -17.18127288 9.48899397 -20.88671875 9.6875 C-21.87671875 10.3475 -22.86671875 11.0075 -23.88671875 11.6875 C-23.50550209 13.71105568 -23.50550209 13.71105568 -21.88671875 15.6875 C-19.09846896 16.79727081 -16.18697081 17.35544307 -13.26171875 18 C0.19670177 21.40440724 0.19670177 21.40440724 4.11328125 27.6875 C6.64688319 34.05574271 6.60445955 40.03004437 4.29296875 46.453125 C2.35345167 50.12664742 -0.20725857 52.75131804 -3.88671875 54.6875 C-8.36484717 55.72480658 -12.73826391 55.85153043 -17.32421875 55.875 C-18.58105469 55.88917969 -19.83789062 55.90335938 -21.1328125 55.91796875 C-28.65527033 55.45613211 -34.61282481 53.17261291 -39.82421875 47.625 C-40.35015625 46.6659375 -40.35015625 46.6659375 -40.88671875 45.6875 C-39.82352573 42.49792093 -39.02961144 41.60371368 -36.57421875 39.4375 C-35.68283203 38.62539063 -35.68283203 38.62539063 -34.7734375 37.796875 C-32.88671875 36.6875 -32.88671875 36.6875 -30.8046875 36.88671875 C-28.88671875 37.6875 -28.88671875 37.6875 -26.51171875 39.75 C-21.57943536 43.30792317 -14.64632827 41.97153554 -8.88671875 41.6875 C-8.88671875 39.7075 -8.88671875 37.7275 -8.88671875 35.6875 C-12.28816704 33.7687343 -15.38938788 32.49191443 -19.19921875 31.75 C-25.61868408 30.41847515 -32.99636425 28.31115714 -37.07421875 22.7890625 C-39.19844052 17.29468119 -39.10754929 10.07731882 -37.1171875 4.55078125 C-34.22276689 -0.02724656 -30.26537786 -2.64445971 -25.06640625 -3.9609375 C-16.49559449 -5.34332649 -7.32520617 -5.0957956 0 0 Z " fill="#0295D7" transform="translate(595.88671875,538.3125)"/>
<path d="M0 0 C4.62 0 9.24 0 14 0 C14.01981934 1.09465576 14.03963867 2.18931152 14.06005859 3.31713867 C14.13629437 7.38947029 14.2249838 11.46145296 14.31738281 15.53344727 C14.35559841 17.29379371 14.39046413 19.05421626 14.421875 20.81469727 C14.46768714 23.34939725 14.52565417 25.88357664 14.5859375 28.41796875 C14.59748871 29.20149216 14.60903992 29.98501556 14.62094116 30.7922821 C14.75551152 35.80668185 15.30054975 39.68813524 18.30078125 43.76953125 C20.59504299 45.4308932 22.38121523 45.50527372 25.1875 45.6875 C26.08855469 45.75324219 26.98960937 45.81898438 27.91796875 45.88671875 C28.60503906 45.92410156 29.29210937 45.96148438 30 46 C30.28875 45.4225 30.5775 44.845 30.875 44.25 C32 42 32 42 33.04443359 40.40332031 C34.48307571 36.78502881 34.35931807 33.1383397 34.4140625 29.296875 C34.43342865 28.45908508 34.4527948 27.62129517 34.4727478 26.75811768 C34.53240724 24.08884787 34.57887413 21.41953461 34.625 18.75 C34.66319236 16.93748146 34.70224482 15.12498082 34.7421875 13.3125 C34.83809752 8.87514585 34.9221788 4.43770675 35 0 C39.62 0 44.24 0 49 0 C49.07466663 5.24695799 49.12884421 10.49360043 49.16479492 15.7409668 C49.17979643 17.52259719 49.20020433 19.30419119 49.22631836 21.08569336 C49.26308509 23.66008535 49.27981285 26.2339853 49.29296875 28.80859375 C49.30845261 29.59334579 49.32393646 30.37809784 49.33988953 31.18663025 C49.34239234 39.5823432 46.73886884 47.09479111 42 54 C34.80132527 59.8202051 26.931377 59.61747792 18 59 C13.28473663 57.8749547 9.51543842 55.30238155 6 52 C6 51.34 6 50.68 6 50 C5.34 50 4.68 50 4 50 C0.84547778 42.18227102 -0.15705655 35.05530151 -0.09765625 26.66015625 C-0.0962413 25.89319931 -0.09482635 25.12624237 -0.09336853 24.33604431 C-0.08781766 21.9114881 -0.07527463 19.48702781 -0.0625 17.0625 C-0.05747864 15.40820447 -0.05291685 13.75390747 -0.04882812 12.09960938 C-0.03786438 8.06636988 -0.02063424 4.03320114 0 0 Z " fill="#0195D8" transform="translate(240,535)"/>
<path d="M0 0 C13.53 0 27.06 0 41 0 C41 4.29 41 8.58 41 13 C32.09 13 23.18 13 14 13 C14 15.64 14 18.28 14 21 C19.28 21 24.56 21 30 21 C30 25.29 30 29.58 30 34 C24.72 34 19.44 34 14 34 C14 37.96 14 41.92 14 46 C23.57 46 33.14 46 43 46 C43 49.96 43 53.92 43 58 C28.81 58 14.62 58 0 58 C0 38.86 0 19.72 0 0 Z " fill="#0195D8" transform="translate(447,535)"/>
<path d="M0 0 C4.62 0 9.24 0 14 0 C17.07402015 8.34376899 19.8771888 16.66828154 22.29956055 25.22436523 C23.34968841 28.91007389 24.49472032 32.47393389 26 36 C28.249487 31.01200708 29.9618881 26.07617803 31.4375 20.8125 C33.44575105 13.80777554 35.64277848 6.89705557 38 0 C42.95 0 47.9 0 53 0 C52.56429687 1.30453125 52.12859375 2.6090625 51.6796875 3.953125 C50.63501893 7.08590601 49.59783085 10.22092984 48.5703125 13.359375 C45.93460056 21.3819303 43.17773746 29.31299758 40.08984375 37.17578125 C38.58543469 41.07430366 37.28185115 45.0240888 36 49 C35.43905125 50.68801629 34.87657392 52.37552545 34.3125 54.0625 C33.879375 55.361875 33.44625 56.66125 33 58 C28.38 58 23.76 58 19 58 C16.75751052 52.50976714 14.65653967 47.04236772 12.80102539 41.41137695 C11.45590588 37.36207937 10.03770463 33.33860967 8.625 29.3125 C8.32263428 28.44616943 8.02026855 27.57983887 7.70874023 26.68725586 C6.31452567 22.70141645 4.90753652 18.72274794 3.43359375 14.765625 C2.98113281 13.54359375 2.52867187 12.3215625 2.0625 11.0625 C1.66160156 10.00160156 1.26070313 8.94070313 0.84765625 7.84765625 C0 5 0 5 0 0 Z " fill="#0195D8" transform="translate(386,535)"/>
<path d="M0 0 C5.20952834 -0.72410433 9.81421413 -1.04465728 15 0 C18.46646726 3.48379959 20.05013733 7.54088782 22 12 C23.10483937 13.77616553 24.2469955 15.5300776 25.4375 17.25 C25.93121094 17.97703125 26.42492187 18.7040625 26.93359375 19.453125 C27.28550781 19.96359375 27.63742187 20.4740625 28 21 C28.65355469 19.85724609 28.65355469 19.85724609 29.3203125 18.69140625 C30.56145785 16.53955036 31.82311417 14.39943628 33.1015625 12.26953125 C34.99667956 9.13016599 34.99667956 9.13016599 36.2734375 6.19921875 C37.63743193 3.47557383 38.56135394 1.84953494 41 0 C46.11289756 -0.75886164 50.87503521 -0.52814523 56 0 C54.48433234 4.22958567 52.3295359 7.90902469 49.9375 11.6875 C47.33364584 15.76625468 47.33364584 15.76625468 45 20 C44.34 20 43.68 20 43 20 C42.79375 20.804375 42.5875 21.60875 42.375 22.4375 C41.13485162 25.65061171 40.02998688 27.31930042 37.96875 29.96875 C34.21040331 35.51132234 34.10848119 40.51692176 34.125 47.0625 C34.104375 48.11888672 34.08375 49.17527344 34.0625 50.26367188 C34.01583144 52.84210976 34.00427317 55.42114335 34 58 C29.71 58 25.42 58 21 58 C20.98582031 56.42089844 20.97164062 54.84179688 20.95703125 53.21484375 C20.91011474 51.12236719 20.86186745 49.02992017 20.8125 46.9375 C20.80669922 45.89916016 20.80089844 44.86082031 20.79492188 43.79101562 C20.59696866 36.86265301 19.47803555 33.2058349 15 28 C13.98457975 26.22862807 13.00164794 24.43796386 12.0625 22.625 C8.94838316 16.79004397 5.57766123 11.08237812 1.32421875 5.99609375 C0 4 0 4 0 0 Z " fill="#0295D8" transform="translate(686,535)"/>
<path d="M0 0 C15.18 0 30.36 0 46 0 C46 4.29 46 8.58 46 13 C40.39 13 34.78 13 29 13 C29 27.85 29 42.7 29 58 C24.71 58 20.42 58 16 58 C16 43.15 16 28.3 16 13 C10.72 13 5.44 13 0 13 C0 8.71 0 4.42 0 0 Z " fill="#0295D7" transform="translate(636,535)"/>
<path d="M0 0 C0.33942627 0.6607251 0.67885254 1.3214502 1.02856445 2.00219727 C3.77954831 4.78997446 5.85061639 4.51612312 9.65977478 4.6056366 C10.57900223 4.60687027 11.49822968 4.60810394 12.4453125 4.609375 C13.41952652 4.62595657 14.39374054 4.64253815 15.3974762 4.65962219 C18.64004865 4.70925851 21.88211986 4.72994996 25.125 4.75 C27.38258522 4.77788206 29.64015407 4.80711968 31.89770508 4.83764648 C58.2621172 5.15906687 84.63440873 5.09744166 111 5 C111 6.98 111 8.96 111 11 C110.01023415 10.99666908 110.01023415 10.99666908 109.00047302 10.99327087 C67.51733902 10.85126432 67.51733902 10.85126432 26.03640747 11.20852661 C24.01962299 11.23607327 22.00273426 11.25685583 19.98580933 11.27072144 C17.19821067 11.29168738 14.41214763 11.3375943 11.625 11.390625 C10.81631973 11.39185867 10.00763947 11.39309235 9.17445374 11.3943634 C4.07296657 11.52918672 1.73711409 12.61490871 -2 16 C-5.7897565 16.32670315 -8.39427296 16.20190901 -12 15 C-14.08133467 11.877998 -14.2737822 11.06733011 -14.25 7.5 C-14.25773438 6.33984375 -14.25773438 6.33984375 -14.265625 5.15625 C-14 3 -14 3 -12 0 C-8.42375874 -1.65057289 -3.67130025 -1.2438697 0 0 Z " fill="#242122" transform="translate(23,330)"/>
<path d="M0 0 C1.32 0 2.64 0 4 0 C4.80402135 13.58616578 5.0878441 27.14839314 5.160923 40.75480652 C5.17585749 43.52979158 5.19353193 46.3047475 5.21188354 49.07971191 C5.26143885 56.76927449 5.31066972 64.45871741 5.32592773 72.1484375 C5.33597738 76.908392 5.36516831 81.66789097 5.40724754 86.42766571 C5.41954793 88.22819337 5.42468055 90.02878504 5.42244911 91.82935333 C5.42010917 94.32456721 5.44214076 96.81844321 5.4699707 99.31347656 C5.46336929 100.05201874 5.45676788 100.79056091 5.44996643 101.55148315 C5.44720021 103.83868962 5.44720021 103.83868962 6 107 C7.89587159 108.8527324 7.89587159 108.8527324 10 110 C10.8234747 113.719834 10.64471615 117.25504009 10 121 C7.46043061 124.21180834 5.99613017 124.8339783 2 125.5 C-1.83460553 124.86089908 -3.40320527 123.89357127 -6 121 C-7.15697704 117.02289141 -7.41083866 114.94492892 -5.75 111.125 C-4 109 -4 109 -1 108 C-1.00222061 107.00093628 -1.00444122 106.00187256 -1.00672913 104.97253418 C-1.02721748 95.44395104 -1.04209364 85.91537252 -1.05181217 76.38677216 C-1.05697688 71.49091151 -1.06395413 66.59506898 -1.07543945 61.69921875 C-1.17053406 20.11154356 -1.17053406 20.11154356 0 0 Z " fill="#242122" transform="translate(185,396)"/>
<path d="M0 0 C1.73825303 2.34534439 1.7094513 3.86957934 1.68359375 6.765625 C1.69132812 7.631875 1.6990625 8.498125 1.70703125 9.390625 C1.23852886 12.18326672 0.55989781 13.0963654 -1.69140625 14.765625 C-2.35140625 14.765625 -3.01140625 14.765625 -3.69140625 14.765625 C-3.68918564 15.61942245 -3.68696503 16.47321991 -3.68467712 17.35289001 C-3.66428215 25.56893271 -3.64923872 33.78496641 -3.63959408 42.00102901 C-3.63446841 46.22066807 -3.6275698 50.4402855 -3.6159668 54.65991211 C-3.55600542 77.05004662 -3.84812709 99.39017402 -4.69140625 121.765625 C-6.01140625 121.765625 -7.33140625 121.765625 -8.69140625 121.765625 C-9.6271149 98.97260499 -9.82067313 76.21626221 -9.7600708 53.40631104 C-9.74959906 49.02673857 -9.74522368 44.64715966 -9.74023438 40.26757812 C-9.72970232 31.76691036 -9.71277696 23.26627243 -9.69140625 14.765625 C-10.325625 14.64703125 -10.95984375 14.5284375 -11.61328125 14.40625 C-13.69140625 13.765625 -13.69140625 13.765625 -14.94140625 11.515625 C-16.06793644 7.3850143 -16.23460807 4.96066899 -14.44140625 1.015625 C-12.69140625 -1.234375 -12.69140625 -1.234375 -10.94140625 -2.109375 C-7.08234993 -2.32376702 -3.20942749 -2.34221498 0 0 Z " fill="#252223" transform="translate(193.69140625,158.234375)"/>
<path d="M0 0 C4.29 0 8.58 0 13 0 C13 19.14 13 38.28 13 58 C8.71 58 4.42 58 0 58 C0 38.86 0 19.72 0 0 Z " fill="#0295D7" transform="translate(613,535)"/>
<path d="M0 0 C3.96 0 7.92 0 12 0 C12 19.14 12 38.28 12 58 C8.04 58 4.08 58 0 58 C0 38.86 0 19.72 0 0 Z " fill="#0096D9" transform="translate(363,535)"/>
<path d="M0 0 C3.3 0 6.6 0 10 0 C10 9.57 10 19.14 10 29 C6.7 29 3.4 29 0 29 C0 19.43 0 9.86 0 0 Z " fill="#8F8E8F" transform="translate(367,230)"/>
<path d="M0 0 C2.95685376 3.32646048 2.6907108 6.3075731 2.484375 10.640625 C2 13.25 2 13.25 -0.125 15.9375 C-3.49823757 17.47745628 -5.33659007 17.86056832 -9 17.25 C-12.74785043 15.16786087 -13.79482295 13.9552961 -15 9.8125 C-15 5.59104759 -13.98238899 3.23238899 -11 0.25 C-6.87750793 -0.57449841 -4.07621748 -1.01905437 0 0 Z " fill="#D42C27" transform="translate(193,503.75)"/>
<path d="M0 0 C2.4375 1.5625 2.4375 1.5625 4 4 C4.79433858 7.988071 4.59850547 10.95912093 2.5625 14.5 C-1.26076161 16.7380068 -4.68129022 16.75280262 -9 16 C-11.5625 14.5625 -11.5625 14.5625 -13 12 C-13.47675177 8.92883161 -13.62402123 6.0526444 -13 3 C-9.38242074 -1.63007957 -5.3958119 -1.23062377 0 0 Z " fill="#D22C28" transform="translate(645,330)"/>
<path d="M0 0 C1.73825303 2.34534439 1.7094513 3.86957934 1.68359375 6.765625 C1.69132812 7.631875 1.6990625 8.498125 1.70703125 9.390625 C1.30859375 11.765625 1.30859375 11.765625 0.1015625 13.5625 C-2.29430961 15.1701876 -3.8910559 15.09995049 -6.75390625 15.015625 C-7.63175781 15.00015625 -8.50960937 14.9846875 -9.4140625 14.96875 C-11.69140625 14.765625 -11.69140625 14.765625 -13.69140625 13.765625 C-15.40467815 10.33908119 -16.1685468 7.58274941 -15.69140625 3.765625 C-13.63258272 -0.76378676 -13.63258272 -0.76378676 -10.94140625 -2.109375 C-7.08234993 -2.32376702 -3.20942749 -2.34221498 0 0 Z " fill="#D22D27" transform="translate(193.69140625,158.234375)"/>
<path d="M0 0 C3.79075032 2.06019039 4.78313252 3.29836992 6.0625 7.4375 C5.98713481 11.73331579 5.03450339 13.05219671 2 16 C-0.85324437 17.42662219 -2.83454549 17.31033868 -6 17 C-8.8125 15.4375 -8.8125 15.4375 -11 13 C-11.93605213 9.50540538 -12.3742539 7.15394952 -11.25 3.6875 C-8.12791772 -0.52731108 -4.88256794 -0.50509324 0 0 Z " fill="#FEFAF1" transform="translate(168,308)"/>
<path d="M0 0 C2.65161107 2.81733676 2.96325002 4.73815643 3.5 8.5625 C3 12 3 12 0.9375 14.4375 C-2.66029564 16.35122109 -4.97485144 16.37269894 -9 16 C-12 15 -12 15 -14 12 C-14.265625 9.84375 -14.265625 9.84375 -14.25 7.5 C-14.25773438 6.33984375 -14.25773438 6.33984375 -14.265625 5.15625 C-14 3 -14 3 -12 0 C-8.30670658 -1.70459696 -3.80454233 -1.16317218 0 0 Z " fill="#D32C27" transform="translate(23,330)"/>
<path d="M0 0 C7.26 0 14.52 0 22 0 C22 1.98 22 3.96 22 6 C14.74 6 7.48 6 0 6 C0 4.02 0 2.04 0 0 Z " fill="#212020" transform="translate(239,335)"/>
<path d="M0 0 C0.99 0.66 1.98 1.32 3 2 C1.25 5.875 1.25 5.875 -1 7 C-3.84352821 7.09825199 -6.65702042 7.13900483 -9.5 7.125 C-10.28503906 7.12886719 -11.07007813 7.13273438 -11.87890625 7.13671875 C-17.74669213 7.12665394 -17.74669213 7.12665394 -20 6 C-20 5.01 -20 4.02 -20 3 C-13.36809489 -0.06087928 -7.2912787 -0.83174587 0 0 Z " fill="#918E8F" transform="translate(260,241)"/>
<path d="M0 0 C0 1.32 0 2.64 0 4 C-1.03060547 4.19916016 -1.03060547 4.19916016 -2.08203125 4.40234375 C-3.43361328 4.66724609 -3.43361328 4.66724609 -4.8125 4.9375 C-5.70582031 5.11152344 -6.59914063 5.28554688 -7.51953125 5.46484375 C-10.11397171 5.97741153 -10.11397171 5.97741153 -13 7 C-15.22818441 7.06937062 -17.45834524 7.08457084 -19.6875 7.0625 C-21.45673828 7.04896484 -21.45673828 7.04896484 -23.26171875 7.03515625 C-24.16535156 7.02355469 -25.06898438 7.01195312 -26 7 C-26.33 5.68 -26.66 4.36 -27 3 C-17.92550815 1.08718365 -9.33175289 -0.5338079 0 0 Z " fill="#908E8F" transform="translate(281,252)"/>
<path d="M0 0 C3.63 0 7.26 0 11 0 C11 3.3 11 6.6 11 10 C7.37 10 3.74 10 0 10 C0 6.7 0 3.4 0 0 Z " fill="#8F8E8F" transform="translate(386,296)"/>
<path d="M0 0 C2.57161458 0.03255208 5.14322917 0.06510417 7.71484375 0.09765625 C7.71484375 3.39765625 7.71484375 6.69765625 7.71484375 10.09765625 C4.08484375 10.09765625 0.45484375 10.09765625 -3.28515625 10.09765625 C-3.3828125 3.1640625 -3.3828125 3.1640625 -3.28515625 1.09765625 C-2.28515625 0.09765625 -2.28515625 0.09765625 0 0 Z " fill="#8F8F8F" transform="translate(321.28515625,257.90234375)"/>
<path d="M0 0 C3.3 0 6.6 0 10 0 C10 3.3 10 6.6 10 10 C6.7 10 3.4 10 0 10 C0 6.7 0 3.4 0 0 Z " fill="#8F8E8F" transform="translate(348,315)"/>
<path d="M0 0 C3.3 0 6.6 0 10 0 C10 3.3 10 6.6 10 10 C6.7 10 3.4 10 0 10 C0 6.7 0 3.4 0 0 Z " fill="#8F8E8F" transform="translate(367,268)"/>
<path d="M0 0 C3.3 0 6.6 0 10 0 C10 3.3 10 6.6 10 10 C6.7 10 3.4 10 0 10 C0 6.7 0 3.4 0 0 Z " fill="#8F8F8F" transform="translate(396,249)"/>
<path d="M0 0 C3.3 0 6.6 0 10 0 C10 2.97 10 5.94 10 9 C6.7 9 3.4 9 0 9 C0 6.03 0 3.06 0 0 Z " fill="#8F8F8F" transform="translate(377,221)"/>
<path d="M0 0 C0.33 1.32 0.66 2.64 1 4 C-5.15370839 5.823321 -10.59646678 6.2361959 -17 6 C-16.67 4.68 -16.34 3.36 -16 2 C-10.42932723 0.40837921 -5.78898419 -0.20674944 0 0 Z " fill="#908E8F" transform="translate(257,249)"/>
<path d="M0 0 C0.33 1.32 0.66 2.64 1 4 C-2.21451269 5.60725635 -5.43612536 5.05748185 -9 5 C-8.625 3.0625 -8.625 3.0625 -8 1 C-5.29120665 -0.35439668 -2.99066732 -0.06501451 0 0 Z " fill="#908E8F" transform="translate(268,247)"/>
<path d="M0 0 C0 0.33 0 0.66 0 1 C-1.98 1 -3.96 1 -6 1 C-6.309375 1.639375 -6.61875 2.27875 -6.9375 2.9375 C-8 5 -8 5 -9 6 C-9.36760731 8.32817964 -9.70241581 10.6618385 -10 13 C-10.66 12.34 -11.32 11.68 -12 11 C-11.85985901 7.21619329 -11.48973588 4.73460383 -9.375 1.5625 C-6.16093309 -0.5520177 -3.76478675 -0.28959898 0 0 Z " fill="#FEECCD" transform="translate(168,308)"/>
<path d="M0 0 C0.33 0.99 0.66 1.98 1 3 C-1 5 -1 5 -3.3828125 5.1953125 C-4.28773438 5.17210937 -5.19265625 5.14890625 -6.125 5.125 C-7.49011719 5.09792969 -7.49011719 5.09792969 -8.8828125 5.0703125 C-9.58148438 5.04710937 -10.28015625 5.02390625 -11 5 C-11 4.01 -11 3.02 -11 2 C-9.01432292 2.06510417 -7.02864583 2.13020833 -5.04296875 2.1953125 C-2.68640281 2.13254462 -2.68640281 2.13254462 0 0 Z " fill="#ED973F" transform="translate(171,322)"/>
</svg>
